<mxfile host="Electron" agent="Mozilla/5.0 (Windows NT 10.0; Win64; x64) AppleWebKit/537.36 (KHTML, like Gecko) draw.io/27.0.9 Chrome/134.0.6998.205 Electron/35.4.0 Safari/537.36" version="27.0.9">
  <diagram name="Page-1" id="xmwOTYTh6F5GbYBCxGCx">
    <mxGraphModel dx="1569" dy="1532" grid="1" gridSize="10" guides="1" tooltips="1" connect="1" arrows="1" fold="1" page="1" pageScale="1" pageWidth="850" pageHeight="1100" math="0" shadow="0">
      <root>
        <mxCell id="0" />
        <mxCell id="1" parent="0" />
        <mxCell id="c_jc8RWCXQvaC4_61SLe-12" style="edgeStyle=orthogonalEdgeStyle;rounded=0;orthogonalLoop=1;jettySize=auto;html=1;" edge="1" parent="1" source="c_jc8RWCXQvaC4_61SLe-2">
          <mxGeometry relative="1" as="geometry">
            <mxPoint x="270" y="130" as="targetPoint" />
          </mxGeometry>
        </mxCell>
        <mxCell id="c_jc8RWCXQvaC4_61SLe-2" value="Contestant picks a category and money amount" style="rounded=0;whiteSpace=wrap;html=1;" vertex="1" parent="1">
          <mxGeometry x="210" y="20" width="120" height="60" as="geometry" />
        </mxCell>
        <mxCell id="c_jc8RWCXQvaC4_61SLe-4" value="stop" style="ellipse;whiteSpace=wrap;html=1;" vertex="1" parent="1">
          <mxGeometry x="-20" y="100" width="120" height="80" as="geometry" />
        </mxCell>
        <mxCell id="c_jc8RWCXQvaC4_61SLe-8" style="edgeStyle=orthogonalEdgeStyle;rounded=0;orthogonalLoop=1;jettySize=auto;html=1;" edge="1" parent="1" source="c_jc8RWCXQvaC4_61SLe-7">
          <mxGeometry relative="1" as="geometry">
            <mxPoint x="40" y="100" as="targetPoint" />
          </mxGeometry>
        </mxCell>
        <mxCell id="c_jc8RWCXQvaC4_61SLe-9" value="No" style="edgeLabel;html=1;align=center;verticalAlign=middle;resizable=0;points=[];" vertex="1" connectable="0" parent="c_jc8RWCXQvaC4_61SLe-8">
          <mxGeometry x="-0.7436" y="4" relative="1" as="geometry">
            <mxPoint as="offset" />
          </mxGeometry>
        </mxCell>
        <mxCell id="c_jc8RWCXQvaC4_61SLe-10" style="edgeStyle=orthogonalEdgeStyle;rounded=0;orthogonalLoop=1;jettySize=auto;html=1;" edge="1" parent="1" source="c_jc8RWCXQvaC4_61SLe-7">
          <mxGeometry relative="1" as="geometry">
            <mxPoint x="270" y="20" as="targetPoint" />
          </mxGeometry>
        </mxCell>
        <mxCell id="c_jc8RWCXQvaC4_61SLe-11" value="Yes" style="edgeLabel;html=1;align=center;verticalAlign=middle;resizable=0;points=[];" vertex="1" connectable="0" parent="c_jc8RWCXQvaC4_61SLe-10">
          <mxGeometry x="-0.5693" y="-3" relative="1" as="geometry">
            <mxPoint as="offset" />
          </mxGeometry>
        </mxCell>
        <mxCell id="c_jc8RWCXQvaC4_61SLe-7" value="Does question exist?" style="rhombus;whiteSpace=wrap;html=1;" vertex="1" parent="1">
          <mxGeometry x="77.5" y="-90" width="115" height="110" as="geometry" />
        </mxCell>
        <mxCell id="c_jc8RWCXQvaC4_61SLe-14" style="edgeStyle=orthogonalEdgeStyle;rounded=0;orthogonalLoop=1;jettySize=auto;html=1;" edge="1" parent="1" source="c_jc8RWCXQvaC4_61SLe-13">
          <mxGeometry relative="1" as="geometry">
            <mxPoint x="270" y="240" as="targetPoint" />
          </mxGeometry>
        </mxCell>
        <mxCell id="c_jc8RWCXQvaC4_61SLe-13" value="Host reads the question" style="rounded=0;whiteSpace=wrap;html=1;" vertex="1" parent="1">
          <mxGeometry x="210" y="130" width="120" height="60" as="geometry" />
        </mxCell>
        <mxCell id="c_jc8RWCXQvaC4_61SLe-16" style="edgeStyle=orthogonalEdgeStyle;rounded=0;orthogonalLoop=1;jettySize=auto;html=1;" edge="1" parent="1" source="c_jc8RWCXQvaC4_61SLe-15">
          <mxGeometry relative="1" as="geometry">
            <mxPoint x="270" y="350" as="targetPoint" />
          </mxGeometry>
        </mxCell>
        <mxCell id="c_jc8RWCXQvaC4_61SLe-15" value="Timer starts" style="rounded=0;whiteSpace=wrap;html=1;" vertex="1" parent="1">
          <mxGeometry x="210" y="240" width="120" height="60" as="geometry" />
        </mxCell>
        <mxCell id="c_jc8RWCXQvaC4_61SLe-18" style="edgeStyle=orthogonalEdgeStyle;rounded=0;orthogonalLoop=1;jettySize=auto;html=1;" edge="1" parent="1" source="c_jc8RWCXQvaC4_61SLe-17">
          <mxGeometry relative="1" as="geometry">
            <mxPoint x="150" y="500" as="targetPoint" />
          </mxGeometry>
        </mxCell>
        <mxCell id="c_jc8RWCXQvaC4_61SLe-22" value="no" style="edgeLabel;html=1;align=center;verticalAlign=middle;resizable=0;points=[];" vertex="1" connectable="0" parent="c_jc8RWCXQvaC4_61SLe-18">
          <mxGeometry x="-0.2133" y="-3" relative="1" as="geometry">
            <mxPoint x="1" as="offset" />
          </mxGeometry>
        </mxCell>
        <mxCell id="c_jc8RWCXQvaC4_61SLe-19" style="edgeStyle=orthogonalEdgeStyle;rounded=0;orthogonalLoop=1;jettySize=auto;html=1;exitX=1;exitY=0.5;exitDx=0;exitDy=0;" edge="1" parent="1" source="c_jc8RWCXQvaC4_61SLe-17">
          <mxGeometry relative="1" as="geometry">
            <mxPoint x="129.51999999999998" y="-99.99999999999999" as="targetPoint" />
            <mxPoint x="329.52" y="440" as="sourcePoint" />
            <Array as="points">
              <mxPoint x="410" y="410" />
              <mxPoint x="410" y="-100" />
            </Array>
          </mxGeometry>
        </mxCell>
        <mxCell id="c_jc8RWCXQvaC4_61SLe-21" value="yes" style="edgeLabel;html=1;align=center;verticalAlign=middle;resizable=0;points=[];" vertex="1" connectable="0" parent="c_jc8RWCXQvaC4_61SLe-19">
          <mxGeometry x="-0.9308" y="6" relative="1" as="geometry">
            <mxPoint as="offset" />
          </mxGeometry>
        </mxCell>
        <mxCell id="c_jc8RWCXQvaC4_61SLe-17" value="Is timer done?&amp;nbsp;" style="rhombus;whiteSpace=wrap;html=1;" vertex="1" parent="1">
          <mxGeometry x="210" y="350" width="120" height="120" as="geometry" />
        </mxCell>
        <mxCell id="c_jc8RWCXQvaC4_61SLe-20" style="edgeStyle=orthogonalEdgeStyle;rounded=0;orthogonalLoop=1;jettySize=auto;html=1;entryX=0.47;entryY=0.131;entryDx=0;entryDy=0;entryPerimeter=0;" edge="1" parent="1" target="c_jc8RWCXQvaC4_61SLe-7">
          <mxGeometry relative="1" as="geometry">
            <mxPoint x="135" y="-149.99999999999977" as="sourcePoint" />
          </mxGeometry>
        </mxCell>
        <mxCell id="c_jc8RWCXQvaC4_61SLe-24" style="edgeStyle=orthogonalEdgeStyle;rounded=0;orthogonalLoop=1;jettySize=auto;html=1;" edge="1" parent="1" source="c_jc8RWCXQvaC4_61SLe-23">
          <mxGeometry relative="1" as="geometry">
            <mxPoint x="150" y="620" as="targetPoint" />
          </mxGeometry>
        </mxCell>
        <mxCell id="c_jc8RWCXQvaC4_61SLe-23" value="contest hits button to answer" style="rounded=0;whiteSpace=wrap;html=1;" vertex="1" parent="1">
          <mxGeometry x="90" y="500" width="120" height="60" as="geometry" />
        </mxCell>
        <mxCell id="c_jc8RWCXQvaC4_61SLe-27" style="edgeStyle=orthogonalEdgeStyle;rounded=0;orthogonalLoop=1;jettySize=auto;html=1;entryX=0.5;entryY=0;entryDx=0;entryDy=0;" edge="1" parent="1" source="c_jc8RWCXQvaC4_61SLe-25" target="c_jc8RWCXQvaC4_61SLe-26">
          <mxGeometry relative="1" as="geometry" />
        </mxCell>
        <mxCell id="c_jc8RWCXQvaC4_61SLe-25" value="contestant answers question" style="rounded=0;whiteSpace=wrap;html=1;" vertex="1" parent="1">
          <mxGeometry x="90" y="620" width="120" height="60" as="geometry" />
        </mxCell>
        <mxCell id="c_jc8RWCXQvaC4_61SLe-28" style="edgeStyle=orthogonalEdgeStyle;rounded=0;orthogonalLoop=1;jettySize=auto;html=1;" edge="1" parent="1" source="c_jc8RWCXQvaC4_61SLe-26">
          <mxGeometry relative="1" as="geometry">
            <mxPoint x="20" y="870" as="targetPoint" />
          </mxGeometry>
        </mxCell>
        <mxCell id="c_jc8RWCXQvaC4_61SLe-32" value="no" style="edgeLabel;html=1;align=center;verticalAlign=middle;resizable=0;points=[];" vertex="1" connectable="0" parent="c_jc8RWCXQvaC4_61SLe-28">
          <mxGeometry x="-0.4523" y="1" relative="1" as="geometry">
            <mxPoint as="offset" />
          </mxGeometry>
        </mxCell>
        <mxCell id="c_jc8RWCXQvaC4_61SLe-30" style="edgeStyle=orthogonalEdgeStyle;rounded=0;orthogonalLoop=1;jettySize=auto;html=1;entryX=0.5;entryY=0;entryDx=0;entryDy=0;" edge="1" parent="1" source="c_jc8RWCXQvaC4_61SLe-26" target="c_jc8RWCXQvaC4_61SLe-29">
          <mxGeometry relative="1" as="geometry">
            <mxPoint x="300" y="910" as="targetPoint" />
          </mxGeometry>
        </mxCell>
        <mxCell id="c_jc8RWCXQvaC4_61SLe-26" value="answer correct?" style="rhombus;whiteSpace=wrap;html=1;" vertex="1" parent="1">
          <mxGeometry x="85" y="730" width="130" height="130" as="geometry" />
        </mxCell>
        <mxCell id="c_jc8RWCXQvaC4_61SLe-29" value="contestant earns moneyAmount and timer stops" style="rounded=0;whiteSpace=wrap;html=1;" vertex="1" parent="1">
          <mxGeometry x="240" y="870" width="120" height="60" as="geometry" />
        </mxCell>
        <mxCell id="c_jc8RWCXQvaC4_61SLe-31" value="yes" style="text;html=1;align=center;verticalAlign=middle;resizable=0;points=[];autosize=1;strokeColor=none;fillColor=none;" vertex="1" parent="1">
          <mxGeometry x="230" y="768" width="40" height="30" as="geometry" />
        </mxCell>
        <mxCell id="c_jc8RWCXQvaC4_61SLe-33" value="contest loses moneyAmount and timer runs out" style="rounded=0;whiteSpace=wrap;html=1;" vertex="1" parent="1">
          <mxGeometry x="-40" y="870" width="120" height="60" as="geometry" />
        </mxCell>
        <mxCell id="c_jc8RWCXQvaC4_61SLe-41" value="start" style="ellipse;whiteSpace=wrap;html=1;" vertex="1" parent="1">
          <mxGeometry x="85" y="-230" width="120" height="80" as="geometry" />
        </mxCell>
        <mxCell id="c_jc8RWCXQvaC4_61SLe-43" value="" style="endArrow=none;html=1;rounded=0;exitX=1;exitY=0.5;exitDx=0;exitDy=0;entryX=0;entryY=0.5;entryDx=0;entryDy=0;" edge="1" parent="1" source="c_jc8RWCXQvaC4_61SLe-33" target="c_jc8RWCXQvaC4_61SLe-29">
          <mxGeometry width="50" height="50" relative="1" as="geometry">
            <mxPoint x="210" y="970" as="sourcePoint" />
            <mxPoint x="230" y="900" as="targetPoint" />
          </mxGeometry>
        </mxCell>
        <mxCell id="c_jc8RWCXQvaC4_61SLe-44" value="" style="endArrow=classic;html=1;rounded=0;" edge="1" parent="1">
          <mxGeometry width="50" height="50" relative="1" as="geometry">
            <mxPoint x="160" y="900" as="sourcePoint" />
            <mxPoint x="130" y="-120" as="targetPoint" />
            <Array as="points">
              <mxPoint x="160" y="1040" />
              <mxPoint x="510" y="1040" />
              <mxPoint x="500" y="-120" />
            </Array>
          </mxGeometry>
        </mxCell>
      </root>
    </mxGraphModel>
  </diagram>
</mxfile>
